<svg width="2963" height="1095" viewBox="0 0 2963 1095" fill="none" xmlns="http://www.w3.org/2000/svg">
<path d="M167.066 1004.24H198.677L303.008 791.469H273.112C242.174 859.9 199.78 946.403 190.591 971.766H190.284C191.632 946.403 186.608 837.722 184.464 791.469H156.712C132.574 843.849 80.1944 948.609 71.9851 973.053H71.6788C73.3942 951.978 69.9022 853.773 68.7995 791.469H39.2706L48.5826 1004.24H80.0106C102.372 957.737 149.544 864.249 161.368 831.351H161.674C160.878 860.083 165.289 958.288 167.066 1004.24Z" fill="white"/>
<path d="M355.141 921.592C355.141 971.277 383.077 1007.3 436.253 1007.3C514.792 1007.3 549.896 939.236 549.896 876.503C549.896 823.878 521.899 788.406 467.804 788.406C392.756 788.406 355.141 858.798 355.141 921.592ZM519.203 875.89C519.203 926.371 494.208 982.61 440.235 982.61C403.171 982.61 386.201 956.022 386.201 920.612C386.201 871.785 411.993 813.095 465.904 813.095C501.988 813.095 519.203 838.581 519.203 875.89Z" fill="white"/>
<path d="M803.1 843.849C803.1 811.992 781.781 791.469 742.021 791.469H668.628L623.538 1004.24H653.25L672.855 910.626H716.351C746.861 910.626 754.763 924.716 748.637 953.693C742.817 979.056 740.612 995.046 741.653 1004.24H769.834C768.793 995.107 772.652 977.28 777.86 953.02C785.395 916.813 768.486 904.683 756.969 900.211C784.537 893.839 803.039 875.032 803.039 843.849H803.1ZM719.047 885.936H678.185L692.888 816.158H735.833C759.848 816.158 772.469 826.266 772.469 846.973C772.469 874.848 751.7 885.936 718.986 885.936H719.047Z" fill="white"/>
<path d="M1038.17 791.469C999.572 826.082 935.981 879.443 920.726 893.901L942.658 791.469H913.13L868.04 1004.24H897.753L914.294 924.9L947.192 899.966L1002.64 1004.24H1035.84L969.982 882.199L1076.09 791.469H1038.17Z" fill="white"/>
<path d="M1337.81 791.469L1220.55 1004.24H1252.16L1285.73 941.931H1366.35L1375.54 1004.24H1405.5L1374.32 791.469H1337.81ZM1298.47 916.874C1322.74 872.336 1341.73 836.252 1351.22 816.648H1351.53C1352.94 834.23 1357.35 867.68 1364.33 916.874H1298.47Z" fill="white"/>
<path d="M1599.22 813.095C1634.2 813.095 1648.41 832.761 1650.74 854.019H1680.21C1679.35 815.668 1650.43 788.406 1603.26 788.406C1526.68 788.406 1489.31 857.266 1489.31 922.021C1489.31 971.032 1514.12 1006.99 1563.38 1006.99C1597.44 1006.99 1615.82 994.434 1629.73 973.543C1627.83 982.733 1625.56 997.497 1625.31 1004.24H1649.21L1672.43 888.265H1584.21L1578.69 914.608H1638.55L1638.24 915.711C1630.95 950.631 1615.27 982.304 1571.34 982.304C1535.63 982.304 1520.37 955.348 1520.37 919.264C1520.37 867.987 1547.2 813.095 1599.34 813.095H1599.22Z" fill="white"/>
<path d="M1921.77 816.587L1926.97 791.469H1793.73L1748.7 1004.24H1886.97L1896.1 979.179H1783.49L1799.06 904.867H1897.63L1903.08 879.749H1804.51L1818.05 816.587H1921.77Z" fill="white"/>
<path d="M2142.98 872.03C2135.63 906.827 2126.99 944.382 2123.62 969.928H2123.2C2117.68 946.403 2078.04 840.663 2060.46 791.53H2021.87L1976.78 1004.3H2005.33L2022.66 921.714C2030.81 883.363 2038.59 847.953 2042.7 820.569H2043.12C2049.19 843.971 2090.36 958.656 2106.59 1004.24H2143.35L2188.44 791.469H2160.01L2142.98 872.03Z" fill="white"/>
<path d="M2364.51 813.095C2396.86 813.095 2410.4 831.719 2412.3 856.531H2443.24C2441.34 814.014 2413.59 788.406 2367.64 788.406C2292.04 788.406 2257.92 860.145 2257.92 921.47C2257.92 970.48 2282.36 1006.99 2335.84 1006.99C2386.32 1006.99 2414.51 981.508 2429.58 940.645H2398.15C2385.65 968.275 2367.15 982.304 2339.58 982.304C2303.37 982.304 2289.77 954.429 2289.77 920.857C2289.77 868.967 2315.08 813.095 2364.45 813.095H2364.51Z" fill="white"/>
<path d="M2548.61 1004.24H2578.38L2594.86 926.554C2595.29 924.042 2596.21 922.327 2597.37 920.856L2698.46 791.469H2665.93C2640.44 825.041 2598.35 878.707 2585.73 898.312C2580.34 878.953 2560.86 824.857 2550.08 791.469H2518.9L2564.9 919.019C2565.64 920.979 2565.64 922.756 2565.21 924.9L2548.61 1004.24Z" fill="white"/>
<path d="M372.849 731.239C473.627 731.239 555.597 699.995 618.698 637.507C681.86 575.018 713.411 493.416 713.411 392.638V322.921H366.907V474.057H533.787C508.241 534.278 455.616 564.359 375.79 564.359C313.608 564.359 265.394 546.041 231.025 509.406C196.656 472.77 179.503 427.926 179.503 374.933C179.503 321.94 196.84 274.829 231.515 239.48C266.19 204.131 310.667 186.488 365.007 186.488C398.396 186.488 428.292 193.043 454.819 206.092C481.346 219.202 501.44 236.54 515.163 258.104L664.339 172.703C634.259 124.918 592.539 86.69 539.179 57.835C485.818 29.0414 427.128 14.6445 362.986 14.6445C261.534 14.6445 176.501 49.3195 107.764 118.669C39.1488 188.142 4.7802 273.175 4.7802 373.953C4.7802 474.731 39.2713 559.458 108.315 628.195C177.358 696.932 265.516 731.239 372.849 731.239Z" fill="white"/>
<path d="M888.132 428.474C886.172 426.882 883.783 425.044 882.067 424.492C880.781 424.063 878.33 423.818 875.88 423.635C873.797 423.451 871.714 423.206 869.631 422.899C852.048 420.265 834.833 410.953 820.988 396.679C813.82 389.266 807.449 380.567 801.629 370.213L798.627 364.822L798.933 358.634C802.977 276.603 835.446 199.963 888.132 140.476V0H725.172V716.534H888.132V428.474Z" fill="white"/>
<path d="M1507.26 337.982H1507.87L1508.3 346.681L1509.89 360.588H1508.91C1509.16 365.734 1509.28 371.064 1509.28 376.394C1509.28 383.256 1509.09 390.178 1508.73 396.856L1507.62 415.602L1489.37 416.95C1488.27 417.257 1485.88 418.482 1484.22 419.278C1481.89 420.442 1479.26 421.668 1476.38 422.832C1479.63 435.023 1475.28 447.398 1463.45 459.712C1452.55 471.046 1441.83 483.053 1440.79 495C1440.54 497.695 1440.79 501.065 1440.91 504.618C1441.22 510.132 1441.58 516.442 1440.6 523.303C1438.89 535.494 1433.62 545.909 1427.92 554.67V716.527H1590.88V671.376C1624.27 710.646 1670.71 730.25 1730.25 730.25C1795.68 730.25 1850.51 705.561 1894.69 656.122C1923.72 623.652 1943.14 585.853 1953.07 542.846C1962.99 585.914 1982.48 623.713 2011.45 656.122C2055.62 705.561 2110.39 730.25 2175.88 730.25C2235.43 730.25 2281.87 710.646 2315.26 671.376V716.527H2478.16V225.748H2315.26V270.899C2281.87 231.629 2235.43 212.025 2175.88 212.025C2110.45 212.025 2055.62 236.714 2011.45 286.153C1982.41 318.623 1962.99 356.422 1953.07 399.49C1943.14 356.422 1923.66 318.623 1894.69 286.153C1850.51 236.775 1795.68 212.025 1730.25 212.025C1670.71 212.025 1624.27 231.629 1590.88 270.899V29.4609H1427.92V150.394C1470.87 202.529 1498.86 266.488 1506.83 334.735L1507.2 338.043L1507.26 337.982ZM2137.59 393.609C2156.59 374.005 2181.4 364.141 2212.21 364.141C2243.03 364.141 2267.84 373.944 2286.83 393.609C2305.82 413.213 2315.32 439.128 2315.32 471.168C2315.32 503.209 2305.82 529.062 2286.83 548.727C2267.84 568.331 2242.97 578.195 2212.21 578.195C2181.46 578.195 2156.59 568.393 2137.59 548.727C2118.6 529.123 2109.11 503.27 2109.11 471.168C2109.11 439.066 2118.6 413.274 2137.59 393.609ZM1619.37 393.609C1638.36 374.005 1663.23 364.141 1693.99 364.141C1724.74 364.141 1749.61 373.944 1768.61 393.609C1787.6 413.213 1797.09 439.128 1797.09 471.168C1797.09 503.209 1787.6 529.062 1768.61 548.727C1749.61 568.331 1724.74 578.195 1693.99 578.195C1663.23 578.195 1638.36 568.393 1619.37 548.727C1600.38 529.123 1590.88 503.27 1590.88 471.168C1590.88 439.066 1600.38 413.274 1619.37 393.609Z" fill="white"/>
<path d="M2672.55 0H2509.59V716.534H2672.55V0Z" fill="white"/>
<path d="M1082.15 77.1334C1083.99 77.4397 1085.89 77.1947 1087.66 77.8073C1091.1 79.0326 1092.75 83.0759 1092.69 86.6904C1092.57 90.305 1091.16 93.797 1090.3 97.3502C1086.32 113.462 1095.69 131.78 1111.07 138.029C1117.01 140.479 1125.22 140.479 1128.34 134.905C1129.26 133.25 1129.63 131.351 1130.18 129.575C1133.86 118.241 1146.11 112.421 1157.5 108.929C1168.9 105.437 1181.4 102.741 1189.18 93.7357C1194.94 87.058 1197.08 77.9298 1196.84 69.1692C1196.59 60.7761 1194.45 52.5669 1192.18 44.4801C1179.62 43.0711 1166.88 42.3359 1153.95 42.3359C1126.14 42.3359 1099.06 45.7667 1073.27 52.138C1072.04 55.8138 1071.25 59.4896 1071.49 63.3492C1071.86 69.6593 1076.02 76.2145 1082.21 77.1334H1082.15Z" fill="white"/>
<path d="M872.756 401.643C878.024 402.44 883.415 402.44 888.5 404.033C894.626 405.932 899.773 410.098 904.551 414.325C910.371 419.41 915.885 424.801 922.317 429.151C925.993 431.662 930.036 433.807 934.325 435.154C938.491 436.502 941.186 440.607 940.696 444.956C939.594 455.616 936.53 466.215 934.693 476.875C932.181 491.333 932.426 507.69 941.799 519.024C953.684 533.42 977.148 536.116 985.357 552.841C989.339 560.928 988.543 570.423 988.053 579.429C986.092 614.9 995.098 643.817 1005.76 675.673C1015.62 680.575 1025.67 684.985 1036.02 688.845C1032.35 670.711 1030.32 651.597 1039.39 635.852C1045.95 624.457 1057.53 616.616 1064.26 605.282C1071.37 593.275 1072.66 577.897 1082.03 567.605C1088.4 560.683 1097.84 556.823 1103.17 549.043C1108.19 541.691 1108.68 532.256 1111.93 523.986C1114.19 518.35 1117.69 513.326 1120.32 507.874C1122.89 502.421 1124.55 496.05 1122.71 490.291C1119.58 480.489 1108.25 476.384 1098.39 473.628C1090.48 471.422 1082.58 469.155 1074.68 466.95C1067.88 465.051 1062.24 460.272 1059.42 453.84C1056.05 446.243 1051.58 439.504 1044.78 435.399C1030.94 427.006 1006.43 412.916 990.197 410.404C974.023 407.892 956.992 408.505 941.86 414.815C939.226 415.918 936.469 417.204 933.712 416.714C929.792 416.04 927.28 412.181 925.748 408.444C924.278 404.707 923.236 400.602 920.296 397.906C917.294 395.15 912.331 393.802 911.351 389.82C910.616 386.757 912.76 383.755 913.189 380.569C914.047 374.381 907.798 369.235 901.672 368.316C895.545 367.397 889.358 369.358 883.231 370.277H883.109C874.655 371.502 867.242 364.579 867.732 356.002C868.467 344.485 872.878 332.6 881.332 326.474C893.462 317.652 912.883 319.551 921.337 331.987C923.665 335.479 925.197 339.523 928.811 341.973C930.465 343.076 932.487 343.689 934.447 343.198C938.92 342.157 939.961 337.011 939.349 332.845C938.797 329.108 937.388 325.31 938.123 321.573C939.777 313.241 950.07 310.729 957.544 306.808C970.103 300.192 977.025 286.591 986.215 275.686C998.345 261.228 1014.58 251.61 1032.1 244.197C1036.45 242.359 1037.68 236.846 1034.55 233.292C1032.41 230.842 1031.3 227.84 1033.14 224.348C1035.35 220.243 1040.74 219.079 1045.33 218.222C1051.22 217.119 1057.28 216.69 1062.73 214.301C1068.18 211.973 1073.15 207.133 1073.51 201.19C1073.94 194.697 1069.04 189.244 1065.43 183.792C1060.22 175.828 1057.34 166.577 1053.18 158C1049.01 149.423 1042.82 141.091 1033.88 137.844C1024.38 134.414 1013.29 137.661 1005.57 144.216C997.855 150.771 993.076 160.205 990.074 169.824C988.665 174.418 987.501 179.197 985.173 183.363C982.784 187.59 978.924 191.205 974.146 191.878C967.101 192.797 961.036 187.1 956.257 181.77C952.152 177.237 947.925 172.274 946.884 166.209C945.475 157.877 950.682 149.668 957.299 144.338C971.022 133.311 991.361 130.615 1001.41 116.096C1003.98 112.359 1006.92 107.397 1011.39 108.009C1014.09 108.377 1015.93 110.644 1018.07 112.359C1025.61 118.363 1037.74 116.157 1043.86 108.744C1049.93 101.27 1050.17 90.0592 1045.64 81.5436C1042.03 74.7434 1035.84 69.5973 1028.85 66.2891C911.229 113.829 826.931 226.431 820.376 359.433C824.848 367.397 830.055 374.933 836.426 381.488C846.229 391.596 858.91 399.315 872.817 401.398L872.756 401.643Z" fill="white"/>
<path d="M1236.29 302.151C1231.57 302.641 1226.49 303.254 1223.18 306.623C1220.48 309.319 1219.5 313.301 1218.34 316.916C1211.66 338.296 1195.85 356.124 1190.83 377.872C1187.77 390.921 1188.93 405.012 1194.63 417.081C1200.39 429.15 1210.8 439.074 1223.42 443.547C1240.21 449.428 1258.53 445.446 1276.48 444.527C1282.66 444.22 1288.24 448.264 1289.83 454.268C1293.08 466.581 1299.94 478.589 1301.78 491.393C1304.72 511.794 1294.79 531.827 1293.69 552.35C1292.9 566.869 1296.57 581.327 1301.1 595.173C1304.54 605.649 1309.25 616.921 1319.06 622.006C1328.61 627.03 1340.74 624.579 1349.81 618.637C1358.88 612.694 1365.49 603.811 1371.93 595.111C1382.09 581.266 1392.33 567.482 1402.56 553.636C1410.03 543.467 1417.75 532.807 1419.47 520.309C1420.69 511.304 1418.67 502.053 1419.47 492.986C1421.18 473.994 1434.78 458.495 1448.01 444.71C1452.61 439.932 1457.57 433.744 1455.49 427.496C1453.28 421.063 1445.32 419.286 1438.95 416.836C1419.28 409.117 1409.6 387.429 1401.82 367.764C1399.62 362.25 1397.96 354.776 1402.8 351.284C1406.78 348.405 1412.54 350.672 1416.28 353.857C1425.41 361.699 1429.02 373.952 1434.6 384.673C1440.11 395.332 1450.16 405.87 1462.1 404.522C1470.93 403.48 1479.26 396.19 1487.41 395.577C1487.77 389.206 1487.96 382.773 1487.96 376.341C1487.96 370.766 1487.84 365.252 1487.59 359.8C1483.24 359.861 1478.95 359.555 1474.85 358.268C1467.86 356.124 1461.49 350.488 1460.57 343.259C1460.21 340.441 1461.12 337.132 1463.7 336.091C1464.86 335.601 1466.21 335.723 1467.43 335.785C1473.5 336.275 1479.56 336.704 1485.63 337.194C1473.13 229.922 1409.79 138.211 1320.34 86.75C1311.95 88.8942 1304.05 93.3052 1297.43 99.0026C1287.87 107.273 1280.77 118.117 1275.19 129.512C1270.72 138.701 1267.35 150.586 1273.84 158.55C1279.66 165.718 1290.32 165.963 1299.57 165.596C1306.68 165.289 1315.38 163.88 1317.65 157.08C1319.42 151.689 1316.05 144.705 1320.1 140.6C1322.18 138.456 1325.49 138.089 1328.18 139.314C1332.53 141.274 1334.43 145.93 1334.86 150.464C1335.72 160.266 1330.2 169.884 1322.3 175.704C1314.4 181.524 1304.41 183.975 1294.61 184.526C1286.46 185.016 1277.4 184.648 1271.27 190.101C1265.76 195.002 1264.53 203.089 1260.3 209.154C1256.57 214.545 1250.5 218.221 1247.44 224.041C1244.44 229.738 1244.87 236.232 1246.58 242.665C1248.42 249.465 1242.66 255.959 1235.68 255.101C1229.92 254.427 1224.4 254.121 1221.03 259.39C1219.38 261.901 1218.83 265.026 1219.2 268.028C1219.93 274.215 1219.69 281.199 1223.85 286.407C1225.2 288.122 1226.98 289.47 1229 290.082C1234.7 291.798 1238.92 287.693 1242.48 283.895C1248.54 277.401 1254.67 270.968 1260.73 264.474C1265.88 258.961 1272.07 253.937 1279.6 253.263C1286.95 252.589 1292.1 256.143 1295.41 260.002C1297.67 262.759 1303.43 270.049 1307.35 275.747C1309.07 278.259 1312.25 279.361 1315.2 278.442H1315.32C1319.18 277.156 1321.14 272.929 1319.55 269.192C1318.14 265.883 1315.69 261.044 1313.66 257.123C1311.58 253.141 1312.74 248.178 1316.42 245.605C1316.42 245.605 1316.54 245.544 1316.6 245.483C1320.59 242.726 1326.1 243.584 1328.98 247.443C1335.23 255.898 1339.76 265.577 1342.09 275.808C1343.19 280.709 1345.52 287.019 1350.48 286.59C1355.94 286.1 1358.2 277.34 1363.65 277.891C1367.94 278.32 1369.11 283.895 1371.68 287.387C1377.81 295.657 1393 291.982 1398.7 300.497C1403.35 307.481 1397.23 317.406 1389.26 319.979C1381.3 322.491 1372.72 320.101 1364.57 318.202C1356.43 316.242 1347.36 314.894 1340.13 319.182C1336.45 321.327 1333.45 324.88 1329.29 325.799C1323.59 327.085 1318.01 322.858 1314.58 318.141C1311.15 313.362 1308.76 307.787 1304.41 303.867C1296.51 296.883 1284.69 297.495 1274.21 298.537C1261.65 299.762 1249.09 301.048 1236.47 302.274L1236.29 302.151ZM1377.56 254.611C1375.6 254.243 1373.58 253.876 1371.86 252.834C1370.15 251.793 1368.8 249.894 1368.98 247.933C1369.17 246.034 1370.58 244.564 1372.05 243.339C1379.52 236.967 1389.51 233.598 1399.31 234.088C1405.68 234.394 1411.87 236.355 1417.32 239.602C1423.02 243.032 1423.08 251.364 1417.44 254.856C1417.44 254.856 1417.38 254.856 1417.32 254.917C1414.81 256.449 1411.81 257 1408.87 257.245C1398.39 258.226 1387.91 256.388 1377.62 254.55L1377.56 254.611Z" fill="white"/>
<path d="M2566.74 1067.82L0 1082.16V1094.41L2566.74 1080.08C2568.95 1080.08 2785.27 1077.62 2852.84 877.355L2835.32 889.547C2764.68 1065.43 2568.76 1067.82 2566.68 1067.82H2566.74Z" fill="white"/>
<path d="M2961.03 681.986C2959.62 681.189 2957.91 681.557 2956.38 681.618C2937.14 682.108 2928.68 695.219 2928.68 695.219C2928.07 696.444 2887.94 766.774 2887.94 766.774C2887.27 767.938 2885.68 769.225 2884.39 769.653L2796.48 797.896C2795.19 798.325 2794.03 799.734 2793.91 801.081L2793.05 810.026C2792.93 811.374 2793.91 812.66 2795.25 812.905L2849.65 822.707C2851 822.952 2851.55 824.116 2850.88 825.28L2826.07 868.532C2825.39 869.696 2823.74 870.921 2822.45 871.228C2822.45 871.228 2792.25 878.702 2785.14 880.356C2783.74 880.601 2783 881.581 2782.69 882.684C2782.02 885.257 2781.53 889.362 2781.53 889.362C2781.35 890.709 2782.33 891.935 2783.67 892.118L2808 895.304C2809.34 895.488 2811.43 894.998 2812.53 894.201L2857.74 862.773C2858.84 861.977 2860.31 860.445 2861.05 859.281C2861.05 859.281 2950.19 713.781 2950.37 712.434C2950.37 712.434 2961.95 693.442 2962.44 685.11C2962.5 683.517 2962.44 682.721 2961.09 681.986H2961.03Z" fill="white"/>
</svg>
